# xmcd
#
# Track frame offsets:
#	150
#	18513
#	37032
#	55258
#	72501
#	89843
#	108867
#	124799
#	140713
#	159251
#	180895
#	200484
#	219399
#	240551
#	255566
#	273404
#	291020
#	304389
#
# Disc length: 4232 seconds
#
# Revision: 0
# Processed by: cddbd v1.5.2PL0 Copyright (c) Steve Scherf et al.
# Submitted via: dBpowerAMP V4.0
#
DISCID=0b108612
DTITLE=Various Artist - Top Hits USA RA50
DYEAR=1900
DGENRE=
TTITLE0=John Mellencamp - Your Life is Now (Violin Version)
TTITLE1=Amy Grant - I Will be Your Friend
TTITLE2=Hootie and The Blowfish - I Will Wait (Radio Edit)
TTITLE3=Shania Twain - From This Moment (Solo Vocal Remix)
TTITLE4=Phil Collins - True Colors (Radio Version)
TTITLE5=Sheryl Crow - My Favorite Mistake
TTITLE6=John Tesh with Dalia - Mother I Miss You
TTITLE7=Dakota Moon - Another Day Goes by (Hot ac Remix)
TTITLE8=LeAnn Rimes - Feels Like Home
TTITLE9=Marc Anthony and Tina Arena - I Want to Spend my Lifetime Loving You
TTITLE10=Max Carl and Big Dance - One More River (Radio Edit)
TTITLE11=Jamaica - Tell me Where it Hurts (Album Edit)
TTITLE12=Lighthouse Family - High (Radio Edit)
TTITLE13=Jennifer Paige - Crush
TTITLE14=Matchbox 20 - Real World
TTITLE15=Natalie Imbruglia - Wishing I Was There (Remix Radio Edit)
TTITLE16=Barenaked Ladies - One Week (Remix)
TTITLE17=Brian Setzer Orchestra - Jump, Jive An' Wail
EXTD=
EXTT0=
EXTT1=
EXTT2=
EXTT3=
EXTT4=
EXTT5=
EXTT6=
EXTT7=
EXTT8=
EXTT9=
EXTT10=
EXTT11=
EXTT12=
EXTT13=
EXTT14=
EXTT15=
EXTT16=
EXTT17=
PLAYORDER=
